HIERARCHY
ROOT Hips
{
  OFFSET 5.84602e-005 68.8428 3.50346
  CHANNELS 6 Xposition Yposition Zposition Zrotation Xrotation Yrotation
  JOINT Spine
  {
    OFFSET 0 8.597 -4.6522
    CHANNELS 3 Zrotation Xrotation Yrotation
    JOINT Spine1
    {
      OFFSET 0 7.8454 0.4098
      CHANNELS 3 Zrotation Xrotation Yrotation
      JOINT Spine2
      {
        OFFSET 0 9.7078 -2.1609
        CHANNELS 3 Zrotation Xrotation Yrotation
        JOINT Neck
        {
          OFFSET 0 21.8761 -0.4549
          CHANNELS 3 Zrotation Xrotation Yrotation
          JOINT Head
          {
            OFFSET 0 12.3537 3.3602
            CHANNELS 3 Zrotation Xrotation Yrotation
            End Site
            {
              OFFSET 0.0001 18.9506 0.5657
            }
          }
        }
        JOINT LeftShoulder
        {
          OFFSET 2.2086 21.1115 7.2329
          CHANNELS 3 Zrotation Xrotation Yrotation
          JOINT LeftArm
          {
            OFFSET 13.1193 3.0282 -4.8998
            CHANNELS 3 Zrotation Xrotation Yrotation
            JOINT LeftForeArm
            {
              OFFSET 27.4081 -0.0973053 -0.2375
              CHANNELS 3 Zrotation Xrotation Yrotation
              JOINT LeftHand
              {
                OFFSET 22.8641 0.0662994 -0.1369
                CHANNELS 3 Zrotation Xrotation Yrotation
                JOINT LeftHandIndex1
                {
                  OFFSET 8.8614 0.775009 2.4612
                  CHANNELS 3 Zrotation Xrotation Yrotation
                  JOINT LeftHandIndex2
                  {
                    OFFSET 3.3146 -0.808304 0.5841
                    CHANNELS 3 Zrotation Xrotation Yrotation
                    JOINT LeftHandIndex3
                    {
                      OFFSET 2.2628 -0.552002 0.3989
                      CHANNELS 3 Zrotation Xrotation Yrotation
                      End Site
                      {
                        OFFSET 1.6102 -0.4807 0.2612
                      }
                    }
                  }
                }
                JOINT LeftHandMiddle1
                {
                  OFFSET 8.9937 0.895004 0.2143
                  CHANNELS 3 Zrotation Xrotation Yrotation
                  JOINT LeftHandMiddle2
                  {
                    OFFSET 4.0984 0.0113983 -0.0242
                    CHANNELS 3 Zrotation Xrotation Yrotation
                    JOINT LeftHandMiddle3
                    {
                      OFFSET 2.2716 0.00689697 -0.0138001
                      CHANNELS 3 Zrotation Xrotation Yrotation
                      End Site
                      {
                        OFFSET 2.0404 -0.1441 0.0027
                      }
                    }
                  }
                }
                JOINT LeftHandRing1
                {
                  OFFSET 8.5234 0.597198 -2.0164
                  CHANNELS 3 Zrotation Xrotation Yrotation
                  JOINT LeftHandRing2
                  {
                    OFFSET 3.7188 -0.188293 -0.2328
                    CHANNELS 3 Zrotation Xrotation Yrotation
                    JOINT LeftHandRing3
                    {
                      OFFSET 2.1191 -0.106598 -0.1332
                      CHANNELS 3 Zrotation Xrotation Yrotation
                      End Site
                      {
                        OFFSET 1.8737 -0.2304 -0.0886
                      }
                    }
                  }
                }
                JOINT LeftHandPinky1
                {
                  OFFSET 7.9094 -0.601089 -3.4825
                  CHANNELS 3 Zrotation Xrotation Yrotation
                  JOINT LeftHandPinky2
                  {
                    OFFSET 2.2874 -0.477005 -0.6314
                    CHANNELS 3 Zrotation Xrotation Yrotation
                    JOINT LeftHandPinky3
                    {
                      OFFSET 1.6774 -0.349396 -0.4633
                      CHANNELS 3 Zrotation Xrotation Yrotation
                      End Site
                      {
                        OFFSET 1.4888 -0.4091 -0.3416
                      }
                    }
                  }
                }
                JOINT LeftHandThumb1
                {
                  OFFSET 1.833 -1.3875 1.3896
                  CHANNELS 3 Zrotation Xrotation Yrotation
                  JOINT LeftHandThumb2
                  {
                    OFFSET 3.4129 -1.121 2.5732
                    CHANNELS 3 Zrotation Xrotation Yrotation
                    JOINT LeftHandThumb3
                    {
                      OFFSET 2.2474 -0.804199 1.6192
                      CHANNELS 3 Zrotation Xrotation Yrotation
                      End Site
                      {
                        OFFSET 1.6527 -0.5689 1.1317
                      }
                    }
                  }
                }
              }
            }
          }
        }
        JOINT RightShoulder
        {
          OFFSET -2.2086 21.1115 7.2329
          CHANNELS 3 Zrotation Xrotation Yrotation
          JOINT RightArm
          {
            OFFSET -13.1216 3.0287 -4.9007
            CHANNELS 3 Zrotation Xrotation Yrotation
            JOINT RightForeArm
            {
              OFFSET -27.4081 -0.0973053 -0.2375
              CHANNELS 3 Zrotation Xrotation Yrotation
              JOINT RightHand
              {
                OFFSET -22.8641 0.0664063 -0.1369
                CHANNELS 3 Zrotation Xrotation Yrotation
                JOINT RightHandIndex1
                {
                  OFFSET -8.8614 0.774994 2.4612
                  CHANNELS 3 Zrotation Xrotation Yrotation
                  JOINT RightHandIndex2
                  {
                    OFFSET -3.3146 -0.808304 0.5841
                    CHANNELS 3 Zrotation Xrotation Yrotation
                    JOINT RightHandIndex3
                    {
                      OFFSET -2.2628 -0.552002 0.3989
                      CHANNELS 3 Zrotation Xrotation Yrotation
                      End Site
                      {
                        OFFSET -1.6102 -0.4807 0.2612
                      }
                    }
                  }
                }
                JOINT RightHandMiddle1
                {
                  OFFSET -8.9937 0.894989 0.2143
                  CHANNELS 3 Zrotation Xrotation Yrotation
                  JOINT RightHandMiddle2
                  {
                    OFFSET -4.0984 0.0113983 -0.0242
                    CHANNELS 3 Zrotation Xrotation Yrotation
                    JOINT RightHandMiddle3
                    {
                      OFFSET -2.2716 0.00691223 -0.0138001
                      CHANNELS 3 Zrotation Xrotation Yrotation
                      End Site
                      {
                        OFFSET -2.0404 -0.1441 0.0027
                      }
                    }
                  }
                }
                JOINT RightHandRing1
                {
                  OFFSET -8.5234 0.597198 -2.0164
                  CHANNELS 3 Zrotation Xrotation Yrotation
                  JOINT RightHandRing2
                  {
                    OFFSET -3.7188 -0.188309 -0.2328
                    CHANNELS 3 Zrotation Xrotation Yrotation
                    JOINT RightHandRing3
                    {
                      OFFSET -2.1191 -0.106598 -0.1332
                      CHANNELS 3 Zrotation Xrotation Yrotation
                      End Site
                      {
                        OFFSET -1.8737 -0.2304 -0.0886
                      }
                    }
                  }
                }
                JOINT RightHandPinky1
                {
                  OFFSET -7.9094 -0.601105 -3.4825
                  CHANNELS 3 Zrotation Xrotation Yrotation
                  JOINT RightHandPinky2
                  {
                    OFFSET -2.2874 -0.477005 -0.6314
                    CHANNELS 3 Zrotation Xrotation Yrotation
                    JOINT RightHandPinky3
                    {
                      OFFSET -1.6774 -0.349396 -0.4633
                      CHANNELS 3 Zrotation Xrotation Yrotation
                      End Site
                      {
                        OFFSET -1.4888 -0.4091 -0.3416
                      }
                    }
                  }
                }
                JOINT RightHandThumb1
                {
                  OFFSET -1.833 -1.38751 1.3896
                  CHANNELS 3 Zrotation Xrotation Yrotation
                  JOINT RightHandThumb2
                  {
                    OFFSET -3.41299 -1.12099 2.5732
                    CHANNELS 3 Zrotation Xrotation Yrotation
                    JOINT RightHandThumb3
                    {
                      OFFSET -2.24741 -0.804108 1.6192
                      CHANNELS 3 Zrotation Xrotation Yrotation
                      End Site
                      {
                        OFFSET -1.6527 -0.5689 1.1317
                      }
                    }
                  }
                }
              }
            }
          }
        }
      }
    }
  }
  JOINT RightUpLeg
  {
    OFFSET -9.1966 3.8861 -0.7581
    CHANNELS 3 Zrotation Xrotation Yrotation
    JOINT RightLeg
    {
      OFFSET -0.7359 -41.0265 0
      CHANNELS 3 Zrotation Xrotation Yrotation
      JOINT RightFoot
      {
        OFFSET 0 -40.2855 0
        CHANNELS 3 Zrotation Xrotation Yrotation
        JOINT RightToeBase
        {
          OFFSET 0 -5.6122 11.7359
          CHANNELS 3 Zrotation Xrotation Yrotation
          End Site
          {
            OFFSET 0 0 7.8731
          }
        }
      }
    }
  }
  JOINT LeftUpLeg
  {
    OFFSET 9.1965 3.8864 -0.7581
    CHANNELS 3 Zrotation Xrotation Yrotation
    JOINT LeftLeg
    {
      OFFSET 0.7359 -41.0268 0
      CHANNELS 3 Zrotation Xrotation Yrotation
      JOINT LeftFoot
      {
        OFFSET 0 -40.2855 0
        CHANNELS 3 Zrotation Xrotation Yrotation
        JOINT LeftToeBase
        {
          OFFSET 0 -5.6122 11.7359
          CHANNELS 3 Zrotation Xrotation Yrotation
          End Site
          {
            OFFSET 0 0 7.8731
          }
        }
      }
    }
  }
}
MOTION
Frames:	4
Frame Time:	0.0333333
10.3155 68.1466 46.8605 -7.01671e-015 7.01671e-015 180 -0.925928 -0.560456 -1.31666 -1.86462 -1.09941 -2.64238 -1.86462 -1.09941 -2.64238 0.857996 16.7505 -0.270473 11.1956 2.86871 -0.27243 -65.0899 -3.17677 4.4375 0.194414 -0.960677 1.7066 -47.3522 32.2171 -84.0671 -31.8616 13.2721 -6.40797 -2.29548e-007 2.36952e-007 6.73117e-008 -3.18055e-015 3.18055e-015 1.19271e-015 -3.18055e-015 1.59028e-015 7.95139e-016 -2.29548e-007 2.36952e-007 6.73117e-008 -0.0146202 -8.21076e-005 -1.43499e-006 3.18055e-015 3.18055e-015 6.36111e-015 -2.29548e-007 2.36952e-007 6.73117e-008 -0.0187777 -0.00118256 6.14501e-005 -1.54487e-031 -3.18055e-015 -2.78299e-015 -2.29548e-007 2.36952e-007 6.73117e-008 -0.0123051 -0.00325289 0.000680632 2.20695e-032 1.59028e-015 -7.95139e-016 -2.29548e-007 2.36952e-007 6.73117e-008 -3.18055e-015 3.18055e-015 1.19271e-015 -3.18055e-015 1.59028e-015 7.95139e-016 58.5645 -0.323435 23.146 -8.30386 -3.57746 -6.78515 45.1239 29.0069 93.3527 27.5296 30.0928 15.8566 -1.58545e-006 -9.64471e-007 8.67565e-007 -3.38825e-006 7.72286e-007 -2.19148e-007 -1.82502e-006 -7.536e-007 7.85431e-008 -1.58545e-006 -9.64471e-007 8.67565e-007 0.0150765 -8.62074e-005 1.43567e-006 -1.82317e-006 -7.53601e-007 7.86438e-008 -1.58545e-006 -9.64471e-007 8.67565e-007 0.0190363 -0.00119466 -5.90994e-005 -1.8177e-006 7.64715e-008 -3.09869e-007 -1.58545e-006 -9.64471e-007 8.67565e-007 0.012314 -0.0032581 -0.000674782 -1.81768e-006 7.64888e-008 -3.09829e-007 -1.58545e-006 -9.64471e-007 8.67565e-007 -3.38825e-006 7.72286e-007 -2.19148e-007 -1.82502e-006 -7.536e-007 7.85431e-008 -8.61389 -16.2385 -3.30668 -2.76345 32.8691 1.12216 -12.5216 -19.7986 -4.68505 -1.66195e-006 -1.30048e-007 4.7119e-007 9.38594 -5.16494 0.869515 0.0882388 20.4211 -0.0767434 -1.69714 -6.71777 25.0775 1.59028e-015 0 -6.36111e-015 
10.2105 68.1467 46.8661 -7.01671e-015 7.01671e-015 180 -0.933438 -0.56431 -1.31455 -1.87971 -1.10698 -2.63831 -1.87971 -1.10698 -2.63831 0.851902 16.6405 -0.267788 11.1222 2.85018 -0.26877 -65.0363 -3.14133 4.34855 0.194422 -0.960677 1.7066 -47.3876 32.1352 -84.2659 -31.8398 13.2489 -6.29833 6.36111e-015 6.36111e-015 -1.59028e-015 2.64834e-031 6.36111e-015 -2.38542e-015 8.82781e-032 6.36111e-015 -7.95139e-016 6.36111e-015 6.36111e-015 -1.59028e-015 -0.0146135 -8.14185e-005 5.04534e-006 6.36111e-015 -1.59028e-015 2.38542e-015 6.36111e-015 6.36111e-015 -1.59028e-015 -0.0187816 -0.00116961 5.57558e-005 0 0 -7.95139e-016 6.36111e-015 6.36111e-015 -1.59028e-015 -0.0123022 -0.00326008 0.000677793 8.82781e-032 1.59028e-015 -3.18055e-015 6.36111e-015 6.36111e-015 -1.59028e-015 2.64834e-031 6.36111e-015 -2.38542e-015 8.82781e-032 6.36111e-015 -7.95139e-016 58.5193 -0.337915 23.2184 -8.21431 -3.5937 -6.54073 45.2013 28.8973 93.4432 27.3115 30.0252 15.9172 -2.08755e-006 -5.14384e-007 -6.81048e-007 -3.39457e-006 -5.141e-008 1.616e-007 -1.54472e-006 6.75596e-007 5.3432e-008 -2.08755e-006 -5.14384e-007 -6.81048e-007 0.0148971 -8.83181e-005 2.45825e-007 -1.8162e-006 8.05656e-008 -3.13817e-007 -2.08755e-006 -5.14384e-007 -6.81048e-007 0.0189911 -0.00118853 -5.9438e-005 -1.81622e-006 8.05581e-008 -3.13802e-007 -2.08755e-006 -5.14384e-007 -6.81048e-007 0.0122517 -0.00324107 -0.000676296 -1.54632e-006 6.76016e-007 5.34919e-008 -2.08755e-006 -5.14384e-007 -6.81048e-007 -3.39457e-006 -5.141e-008 1.616e-007 -1.54472e-006 6.75596e-007 5.3432e-008 -8.70498 -16.1691 -3.31046 -2.71608 32.7254 1.10077 -12.4568 -19.7223 -4.65211 -7.42958e-015 7.95139e-016 7.95139e-016 9.30574 -5.18666 0.872132 0.0882388 20.4198 -0.0758014 -1.61537 -6.74419 24.9197 -2.38542e-015 1.59028e-015 -0 
10.1055 68.1467 46.8717 -7.01671e-015 7.01671e-015 180 -0.940952 -0.56817 -1.31245 -1.89481 -1.11456 -2.63425 -1.89481 -1.11456 -2.63425 0.845815 16.5311 -0.26507 11.0488 2.83164 -0.265132 -64.9828 -3.106 4.25959 0.194439 -0.960675 1.7066 -47.4234 32.0534 -84.4647 -31.818 13.2257 -6.18866 3.18055e-015 4.77083e-015 7.95139e-016 3.18055e-015 3.18055e-015 4.77083e-015 6.36111e-015 4.77083e-015 -7.95139e-016 3.18055e-015 4.77083e-015 7.95139e-016 -0.0146211 -8.64508e-005 4.92191e-006 -2.64834e-031 -3.18055e-015 -4.77083e-015 3.18055e-015 4.77083e-015 7.95139e-016 -0.0187337 -0.00117302 6.22474e-005 -0 0 3.18055e-015 3.18055e-015 4.77083e-015 7.95139e-016 -0.0122917 -0.00325463 0.000678355 -1.54487e-031 -1.59028e-015 -5.56597e-015 3.18055e-015 4.77083e-015 7.95139e-016 3.18055e-015 3.18055e-015 4.77083e-015 6.36111e-015 4.77083e-015 -7.95139e-016 58.4741 -0.352418 23.2909 -8.12464 -3.60956 -6.29614 45.2789 28.7879 93.5337 27.0937 29.9575 15.9776 -2.35846e-007 2.14374e-007 -7.89397e-007 -2.35846e-007 2.14374e-007 -7.89397e-007 -2.35846e-007 2.14374e-007 -7.89397e-007 -2.35846e-007 2.14374e-007 -7.89397e-007 0.0149806 -9.13682e-005 -2.63284e-006 -2.35856e-007 2.14271e-007 -7.89425e-007 -2.35846e-007 2.14374e-007 -7.89397e-007 0.0190323 -0.0011946 -6.01477e-005 5.75867e-008 7.85481e-007 -4.55829e-007 -2.35846e-007 2.14374e-007 -7.89397e-007 0.0123193 -0.00326561 -0.000681557 -2.35877e-007 2.1429e-007 -7.89413e-007 -2.35846e-007 2.14374e-007 -7.89397e-007 -2.35846e-007 2.14374e-007 -7.89397e-007 -2.35846e-007 2.14374e-007 -7.89397e-007 -8.79608 -16.0996 -3.31414 -2.66873 32.5815 1.07951 -12.3921 -19.6458 -4.61928 3.85145e-015 3.97569e-016 -7.95139e-016 9.22553 -5.20851 0.874713 0.0882413 20.4187 -0.0748837 -1.53364 -6.77098 24.7619 1.6539e-006 -3.90056e-007 9.65376e-008 
10.0006 68.1467 46.8773 -7.01671e-015 7.01671e-015 180 -0.948459 -0.572028 -1.31035 -1.90989 -1.12214 -2.63019 -1.90989 -1.12214 -2.63019 0.839729 16.4211 -0.262395 10.9754 2.81308 -0.26152 -64.9291 -3.07071 4.17055 0.194441 -0.960677 1.7066 -47.4594 31.9717 -84.6634 -31.7962 13.2026 -6.07898 3.18055e-015 0 6.36111e-015 3.18055e-015 -3.18055e-015 4.77083e-015 0 0 -1.59028e-015 3.18055e-015 0 6.36111e-015 -0.0146305 -9.28232e-005 -1.16428e-006 3.18055e-015 -3.18055e-015 -3.18055e-015 3.18055e-015 0 6.36111e-015 -0.0187843 -0.00118081 5.86358e-005 -4.41391e-032 -3.18055e-015 -7.95139e-016 3.18055e-015 0 6.36111e-015 -0.0122188 -0.0032416 0.000672393 3.18055e-015 1.59028e-015 -3.97569e-015 3.18055e-015 0 6.36111e-015 3.18055e-015 -3.18055e-015 4.77083e-015 0 0 -1.59028e-015 58.4289 -0.367023 23.3633 -8.03485 -3.62504 -6.05139 45.3566 28.6785 93.6244 26.8759 29.8895 16.0376 4.88509e-007 -3.37439e-006 -7.49473e-008 3.13775e-006 3.19664e-006 7.18077e-007 2.54508e-007 -3.15826e-006 -8.64513e-007 4.88509e-007 -3.37439e-006 -7.49473e-008 0.0149855 -8.83311e-005 2.53032e-007 2.54385e-007 -3.15837e-006 -8.641e-007 4.88509e-007 -3.37439e-006 -7.49473e-008 0.0190658 -0.00119087 -6.13729e-005 2.54345e-007 -3.1584e-006 -8.63989e-007 4.88509e-007 -3.37439e-006 -7.49473e-008 0.0123486 -0.00326033 -0.00067862 -6.43388e-008 -3.70614e-006 -1.16415e-006 4.88509e-007 -3.37439e-006 -7.49473e-008 3.13775e-006 3.19664e-006 7.18077e-007 2.54508e-007 -3.15826e-006 -8.64513e-007 -8.88719 -16.03 -3.3177 -2.62143 32.4375 1.0584 -12.3274 -19.5693 -4.58654 -2.57599e-006 -1.61862e-007 5.21599e-007 9.14532 -5.23025 0.877261 0.0882505 20.4175 -0.0739514 -1.45196 -6.79791 24.6041 0 0 -0 
